<?xml version="1.0" standalone="no"?><!DOCTYPE svg PUBLIC "-//W3C//DTD SVG 1.1//EN" "http://www.w3.org/Graphics/SVG/1.1/DTD/svg11.dtd"><svg t="1487226365515" class="icon" style="" viewBox="0 0 1024 1024" version="1.1" xmlns="http://www.w3.org/2000/svg" p-id="842" xmlns:xlink="http://www.w3.org/1999/xlink" width="150" height="150"><defs><style type="text/css"></style></defs><path d="M70.4 441.6C32 441.6 0 473.6 0 512c0 38.4 32 70.4 70.4 70.4 38.4 0 70.4-32 70.4-70.4 6.4-38.4-32-70.4-70.4-70.4z m0 288c-38.4 0-70.4 38.4-70.4 76.8s32 70.4 70.4 70.4c38.4 0 70.4-32 70.4-70.4 6.4-38.4-32-76.8-70.4-76.8z m256-473.6h659.2c25.6 0 38.4-19.2 38.4-38.4s-19.2-38.4-38.4-38.4H326.4c-19.2 0-38.4 19.2-38.4 38.4 6.4 19.2 19.2 38.4 38.4 38.4z m665.6 512H326.4c-19.2 0-38.4 19.2-38.4 38.4s19.2 38.4 38.4 38.4h659.2c19.2 0 38.4-19.2 38.4-38.4s-12.8-38.4-32-38.4zM70.4 147.2C32 147.2 0 179.2 0 217.6c0 38.4 32 76.8 70.4 76.8 38.4 0 70.4-32 70.4-70.4 6.4-44.8-32-76.8-70.4-76.8z m921.6 326.4H326.4c-19.2 0-32 19.2-32 38.4s19.2 38.4 38.4 38.4h659.2c19.2 0 32-19.2 32-38.4s-12.8-38.4-32-38.4z" p-id="843" fill="#ffffff"></path></svg>